<svg xmlns="http://www.w3.org/2000/svg" width="245" height="172" viewBox="0 0 245 172">
    <g fill="none" fill-rule="evenodd" opacity=".1">
        <g>
            <g>
                <g>
                    <path fill="#1589CA" fill-rule="nonzero" d="M144.634 86.894c1.37-2.434 2.224-5.088 2.515-7.82h-38.4l-.835.583-1.176 3.394c-.937 2.568 1.176 2.056 2.138 2.568 2.64.762 4.154 3.323 3.427 5.794l-12.08 34.983c-1.584 3.761-4.608 4.274-9.337 4.827-.798 2.329-1.087 3.12-1.886 5.13l.849.721h68.757L167 111.973c-2.196-.59-4.524-.616-6.734-.076-1.76 2.51-2.094 6.405-4.188 9.899-1.572 2.505-3.902 4.53-6.703 5.822-6.62 2.568-11.217 1.427-21.177 1.555-.818-.002-1.635-.052-2.446-.151-1.459-.175-1.459-.64-1.257-1.555l12.273-36.537c1.17-3.22 4.49-3.785 7.847-4.024" transform="translate(-130) translate(130 -54.074)"/>
                    <path fill="#1488C9" d="M123.929.082c67.464.726 121.591 51.635 121.067 113.87-.524 62.234-55.503 112.362-122.971 112.122C54.557 225.83 0 175.312 0 113.076.544 50.366 55.933-.144 123.916.076m0 64.402c29.01.31 52.288 22.2 52.065 48.961-.222 26.761-23.86 48.32-52.872 48.22-29.012-.1-52.475-21.821-52.48-48.583.21-26.977 24.042-48.71 53.287-48.598m3.147-48.191c-14.842 6.822-63.937 37.931-68.205 94.188C46.594 94.427 40.081 75.24 40.233 55.606l.516-2.078c6.471-12.67 45.571-40.644 86.308-37.247M19.235 109.505c7.346 13.708 41.008 59.118 101.798 63.014-17.301 11.363-38.047 17.404-59.286 17.262l-2.285-.424c-13.709-6.05-43.96-42.234-40.227-79.852m101.54 100.394c14.849-6.886 63.963-37.966 68.23-94.199 12.19 16.078 18.696 35.237 18.632 54.857l-.529 2.061c-6.552 12.71-45.602 40.643-86.333 37.281m107.828-93.287c-7.383-13.685-41.039-59.084-101.854-63.055 17.342-11.308 38.086-17.326 59.324-17.21l2.272.5c13.665 5.986 43.896 42.158 40.283 79.765" transform="translate(-130) translate(130 -54.074)"/>
                </g>
            </g>
        </g>
    </g>
</svg>