
<svg xmlns="http://www.w3.org/2000/svg" width="248" height="193" viewBox="0 0 248 193">
    <g fill="none" fill-rule="evenodd" opacity=".1">
        <g>
            <g>
                <g>
                    <g>
                        <path fill="#1589CA" fill-rule="nonzero" d="M158.34 95.7c1.51-2.657 2.452-5.555 2.774-8.536h-42.338l-.922.635-1.297 3.706c-1.033 2.802 1.297 2.243 2.357 2.802 2.911.832 4.581 3.628 3.779 6.324l-13.318 38.185c-1.747 4.106-5.082 4.665-10.295 5.269-.88 2.542-1.2 3.406-2.08 5.599l.936.788h75.809l9.255-27.4c-2.421-.643-4.987-.671-7.425-.082-1.941 2.74-2.308 6.991-4.617 10.805-1.733 2.735-4.303 4.944-7.39 6.355-7.3 2.803-12.368 1.558-23.35 1.697-.901-.002-1.802-.057-2.696-.165-1.609-.19-1.609-.699-1.387-1.697l13.533-39.881c1.29-3.515 4.95-4.131 8.652-4.392" transform="translate(-1192 -966) translate(0 774) translate(1192 192.5)"/>
                        <path fill="#1488C9" d="M136.069.008c74.073.799 133.502 56.81 132.927 125.28-.576 68.47-60.94 123.621-135.017 123.357C59.9 248.378 0 192.797 0 124.325.597 55.33 61.412-.24 136.055 0m0 70.855c31.852.342 57.41 24.425 57.165 53.868-.244 29.443-26.198 53.16-58.052 53.051-31.854-.11-57.615-24.007-57.62-53.45.231-29.68 26.397-53.592 58.507-53.469m3.455-53.02c-16.296 7.507-70.2 41.733-74.886 103.626-13.466-17.656-20.617-38.764-20.45-60.366l.567-2.287c7.105-13.938 50.035-44.716 94.762-40.979M21.12 120.396c8.065 15.082 45.024 65.042 111.77 69.328-18.997 12.502-41.775 19.148-65.094 18.992l-2.509-.467c-15.052-6.656-48.265-46.466-44.167-87.853M132.606 230.85c16.303-7.576 70.229-41.77 74.915-103.638 13.382 17.69 20.527 38.768 20.456 60.353l-.58 2.268c-7.195 13.983-50.07 44.716-94.79 41.017m118.39-102.635c-8.106-15.057-45.06-65.004-111.832-69.374 19.041-12.44 41.817-19.061 65.135-18.934l2.495.55c15.003 6.586 48.197 46.383 44.23 87.758" transform="translate(-1192 -966) translate(0 774) translate(1192 192.5)"/>
                    </g>
                </g>
            </g>
        </g>
    </g>
</svg>
