
<svg xmlns="http://www.w3.org/2000/svg" width="188" height="40" viewBox="0 0 188 40">
    <g fill="none" fill-rule="evenodd">
        <g>
            <g>
                <g>
                    <g>
                        <path fill="#231F20" fill-rule="nonzero" d="M84.692 34.9l.857-2.475.825 2.476h-1.682zm1.345-4.475h-1.045l-2.461 6.797h1.374l.412-1.207h2.41l.403 1.207h1.375l-2.468-6.797zM91.66 35.934c-.213.237-.53.352-.846.308-.47 0-.707-.189-.707-.567 0-.377.23-.563.692-.563h.97v.263c.015.193-.023.386-.109.559m1.36-1.984c0-1.169-.706-1.753-2.117-1.753-.344-.012-.688.035-1.017.14-.3.113-.566.3-.774.542l.789.77c.24-.272.59-.42.951-.403.616 0 .918.256.918.777v.243H90.6c-.456-.03-.906.114-1.26.4-.285.27-.44.647-.425 1.038-.02.414.13.819.417 1.12.727.586 1.77.57 2.48-.04v.436h1.207l.001-3.27zM97.142 35.678c-.124.294-.412.485-.73.485-.32 0-.607-.19-.731-.485-.142-.621-.142-1.267 0-1.889.127-.29.414-.478.73-.478.317 0 .604.188.731.478.136.623.136 1.267 0 1.89m1.282-2.082c-.042-.357-.196-.691-.439-.955-.327-.307-.764-.468-1.212-.446-.47-.019-.924.171-1.24.519v-.473h-1.198v6.806h1.238v-2.269c.305.338.745.522 1.2.504.448.022.886-.14 1.212-.448.24-.264.394-.596.438-.95.051-.383.072-.769.064-1.154.008-.38-.013-.76-.064-1.136M104.185 37.222L102.653 37.222 101.438 35.145 100.915 35.743 100.915 37.222 99.665 37.222 99.665 30.425 100.915 30.425 100.915 34.271 102.56 32.238 104.05 32.238 102.281 34.238zM106.235 31.4h-1.246v-1.005h1.246V31.4zm0 5.822h-1.246v-4.98h1.246v4.98zM113.308 34.992c.029.65-.236 1.28-.721 1.714-.468.39-1.062.595-1.67.578-.655.019-1.287-.237-1.745-.704l.878-.87c.22.246.535.388.866.39.71 0 1.06-.39 1.06-1.162v-4.513h1.332v4.567zM115.654 34.268c.003-.181.043-.36.116-.525.16-.312.48-.51.83-.51.351 0 .672.198.832.51.073.165.113.344.115.525h-1.893zm3.113.295c.027-.614-.173-1.216-.562-1.692-.405-.454-.994-.701-1.602-.673-.592-.025-1.165.216-1.561.656-.423.533-.635 1.202-.596 1.881 0 1.699.765 2.549 2.294 2.55.37.01.737-.059 1.077-.203.303-.142.577-.34.806-.583l-.758-.74c-.292.309-.702.48-1.127.473-.297.016-.587-.096-.796-.307-.199-.221-.303-.512-.29-.809h3.117l-.002-.553zM120.876 34.268c-.001-.181.037-.36.112-.525.16-.313.482-.51.833-.51.352 0 .673.197.833.51.067.167.106.345.114.525h-1.892zm3.113.295c.027-.614-.175-1.217-.565-1.692-.405-.454-.993-.7-1.6-.673-.594-.025-1.167.215-1.565.656-.423.533-.636 1.202-.598 1.881 0 1.699.766 2.549 2.298 2.55.372.01.741-.06 1.084-.203.3-.145.57-.342.8-.583l-.758-.74c-.29.309-.698.48-1.122.473-.298.018-.589-.094-.798-.307-.199-.221-.303-.512-.289-.809h3.113v-.553zM127.355 37.222h-.676c-.387.025-.766-.117-1.041-.39-.276-.272-.422-.65-.401-1.037v-2.461h-.522v-.94h.522v-1.478h1.24v1.477h.877v.94h-.876v2.385c0 .3.146.449.427.449h.449v1.055zM128.425 35.808H129.848V37.222H128.425zM138.439 37.222L137.112 37.222 137.112 34.366 134.818 34.366 134.818 37.222 133.491 37.222 133.491 30.425 134.818 30.425 134.818 33.2 137.112 33.2 137.112 30.425 138.439 30.425zM142.328 35.934c-.212.236-.527.352-.841.308-.473 0-.71-.19-.71-.567 0-.377.229-.565.687-.563h.978v.263c.012.193-.027.386-.114.559m1.357-1.984c0-1.168-.703-1.753-2.116-1.753-.344-.012-.688.035-1.017.14-.298.114-.564.3-.774.542l.787.77c.24-.271.59-.42.951-.403.616 0 .923.256.923.777v.243h-1.169c-.456-.03-.906.113-1.26.4-.287.268-.446.646-.436 1.038-.017.415.136.82.424 1.12.342.308.797.463 1.257.428.452.015.89-.154 1.216-.469v.437h1.212l.002-3.27zM152.02 37.222h-1.246v-3.005c.02-.262-.078-.52-.266-.704-.151-.135-.348-.207-.55-.201-.202-.006-.399.063-.554.192-.193.174-.297.426-.282.685v3.034h-1.242v-3.005c.02-.263-.077-.52-.266-.704-.149-.137-.345-.21-.546-.202-.207-.008-.408.064-.562.202-.185.185-.282.442-.264.704v3.005h-1.237v-4.98h1.21v.462c.323-.334.77-.519 1.235-.508.516-.029 1.012.204 1.32.62.385-.407.924-.632 1.484-.62.45-.029.892.13 1.221.437.369.375.565.886.544 1.411v3.177zM155.754 35.934c-.213.237-.53.352-.846.308-.469 0-.703-.19-.703-.567 0-.376.23-.563.692-.563h.968v.263c.016.193-.022.387-.11.559m1.358-1.984c0-1.169-.705-1.753-2.115-1.753-.345-.012-.69.035-1.02.14-.298.114-.562.3-.77.542l.791.77c.238-.273.588-.422.95-.403.615 0 .916.256.916.777v.243H154.7c-.456-.03-.906.113-1.26.4-.286.268-.443.646-.432 1.038-.02.414.131.818.417 1.12.345.308.8.462 1.262.428.452.013.89-.156 1.217-.469v.437h1.21v-3.27zM162.06 32.66l-.938.94c-.17-.18-.406-.285-.654-.29-.202 0-.396.079-.539.22-.176.187-.27.437-.257.693v2.995h-1.24V32.24h1.213v.48c.31-.357.77-.551 1.243-.526.438-.013.862.154 1.174.462M164.01 31.4h-1.252v-1.005h1.252V31.4zm0 5.822h-1.252v-4.98h1.252v4.98zM171.077 34.992c.03.65-.235 1.28-.722 1.714-.466.392-1.06.597-1.668.578-.654.019-1.287-.236-1.745-.704l.883-.87c.217.248.532.39.862.39.708 0 1.068-.39 1.068-1.162v-4.513h1.322v4.567zM173.424 34.268c.002-.182.044-.361.122-.525.136-.33.469-.536.825-.51.359-.025.694.18.836.51.069.167.107.344.114.525h-1.897zm3.11.295c.027-.614-.172-1.216-.56-1.692-.403-.454-.99-.701-1.596-.673-.593-.026-1.167.214-1.563.656-.427.53-.641 1.201-.602 1.881 0 1.699.765 2.549 2.296 2.55.372.01.742-.059 1.084-.203.301-.144.574-.342.805-.583l-.756-.74c-.293.309-.703.48-1.129.473-.297.017-.587-.095-.795-.307-.201-.22-.308-.51-.295-.809h3.115l-.003-.553zM178.645 34.268c.003-.18.04-.359.111-.525.142-.33.478-.535.836-.51.358-.026.692.18.83.51.07.167.11.344.117.525h-1.894zm3.11.295c.028-.614-.172-1.217-.563-1.692-.414-.427-.983-.67-1.578-.673-.595-.003-1.166.233-1.585.656-.423.532-.636 1.202-.597 1.881 0 1.699.765 2.549 2.296 2.55.372.01.742-.059 1.084-.203.3-.144.57-.342.8-.583l-.753-.74c-.293.31-.703.481-1.13.473-.297.016-.587-.096-.797-.307-.196-.223-.299-.512-.287-.809h3.11v-.553zM185.125 37.222h-.677c-.416.02-.819-.145-1.1-.451-.23-.272-.35-.62-.339-.976v-2.461h-.522v-.94h.522v-1.478h1.246v1.477h.87v.94h-.87v2.385c0 .3.142.449.426.449h.444v1.055zM186.197 35.808H187.617V37.222H186.197z" transform="translate(-93 -40) translate(17 40) translate(76) translate(.075 .182)"/>
                        <path fill="#1589CA" fill-rule="nonzero" d="M107.97 17.686h5.953v2.115h-8.683v-8.724h.914c1.112.058 1.814.385 1.814 1.488l.003 5.121zM91.01 14.314h1.154c.875-.797 1.755-1.593 2.64-2.39.687-.564 1.553-.864 2.441-.847h2.116l-4.83 4.308L100 19.804h-2.198c-.957.092-1.91-.214-2.635-.846l-3-2.458h-1.154v3.303h-2.722v-8.726h2.718l.001 3.237zM64.907 19.8h-2.73v-8.723h1.34c.796.038 1.414.708 1.39 1.505v1.692h5.592v-1.729c.036-.832.729-1.484 1.562-1.471h1.181V19.8H70.5v-3.408h-5.592v3.409zM125.02 13.2h-7.035v1.32h7.032v1.832h-7.032v1.334h7.067v2.115h-9.793v-6.593c.115-1.092.532-1.941 2.25-2.132h7.51v2.125zM133.42 19.8h-2.734v-3.13l-4.923-5.595h2.13c.753.03 1.464.353 1.982.898l2.173 2.569c.75-.847 1.499-1.7 2.257-2.546.57-.605 1.37-.94 2.201-.923h1.85l-4.935 5.596-.002 3.132zM141.83 17.686h5.944v2.115h-8.672v-8.724h.907c1.115.058 1.82.385 1.82 1.488l.001 5.121zM174.647 19.8h-3.995l-5.36-6.345v6.346h-2.727v-8.724h2.243c1.303.025 2.515.674 3.258 1.745l3.862 4.651v-6.396h2.719V19.8zM182.878 13.23h-4.282v4.452h4.625c.45.035.899-.088 1.268-.348.291-.284.44-.684.403-1.089v-1.527c.036-.435-.147-.859-.488-1.132-.46-.273-.993-.397-1.526-.356m.831-2.154c1.043-.083 2.085.164 2.98.706.659.542 1.006 1.375.929 2.225v3c.068.78-.202 1.553-.742 2.121-.68.504-1.52.743-2.362.674h-8.637v-8.725h7.832zM57.105 17.89c.254.024.51-.035.728-.168.154-.14.232-.345.212-.552.02-.218-.074-.43-.25-.56-.338-.157-.706-.236-1.077-.232l-4.28-.094c-.774.062-1.544-.15-2.176-.6-.442-.567-.646-1.284-.568-2-.012-.415.04-.83.154-1.23.084-.306.247-.585.473-.809.29-.257.643-.434 1.023-.515.674-.126 1.36-.177 2.044-.154h4.173c.783-.069 1.567.123 2.23.546.395.349.63.842.654 1.368H53.77c-.352-.027-.706.025-1.035.154-.176.118-.272.324-.25.534-.02.207.068.41.23.539.258.147.55.22.847.214l4.484.077c.78-.056 1.552.184 2.162.672.483.611.708 1.387.626 2.162.022.478-.057.954-.23 1.4-.174.353-.443.65-.778.857-.3.167-.63.273-.97.313-.597.077-1.2.108-1.801.094H53.42c-1.025.09-2.056-.077-3-.485-.48-.357-.756-.926-.74-1.523l7.425-.008zM39.068 19.8h-2.975l4.877-8.725h3.484l4.793 8.726h-3l-.862-1.452h-5.448l-.87 1.452zm1.888-3.552h3.429l-1.733-3.083-1.696 3.083zM79.2 19.898c-.767.018-1.533-.027-2.292-.135-.424-.065-.828-.223-1.185-.461-.333-.252-.59-.592-.74-.982-.166-.519-.242-1.063-.222-1.608v-2.384c-.022-.587.053-1.172.222-1.734.142-.403.4-.756.74-1.014.365-.24.778-.397 1.21-.462.747-.109 1.503-.155 2.258-.139h3.21c.763-.016 1.525.03 2.28.14.429.06.838.219 1.197.461.341.254.596.607.73 1.01.167.53.246 1.082.235 1.636v2.43c.013.554-.067 1.106-.235 1.634-.138.402-.392.754-.73 1.012-.352.243-.757.401-1.181.461-.76.107-1.528.152-2.295.135h-3.203zm.74-2.175h1.732c.66.066 1.327-.057 1.923-.352.353-.34.527-.826.471-1.313v-1.24c.056-.486-.119-.97-.471-1.308-.594-.3-1.261-.424-1.923-.358h-1.749c-.664-.07-1.335.056-1.93.361-.352.358-.522.856-.46 1.355v1.215c-.06.484.122.967.485 1.292.596.294 1.262.416 1.924.352M151.466 19.8h-2.977l4.886-8.725h3.471l4.795 8.726h-2.996l-.867-1.453h-5.445l-.867 1.453zm1.91-3.552h3.43l-1.736-3.083-1.695 3.083zM18.29 12.102c.168-.322.273-.673.308-1.034h-4.697l-.103.077-.143.449c-.115.34.143.271.261.34.323.1.508.438.42.764l-1.478 4.622c-.194.497-.564.565-1.143.638-.097.307-.133.412-.23.677l.103.096H20l1.027-3.316c-.269-.078-.553-.082-.824-.01-.215.331-.256.846-.512 1.307-.193.331-.478.599-.82.77-.81.339-1.373.188-2.591.205-.1 0-.2-.007-.3-.02-.178-.023-.178-.085-.153-.205l1.501-4.827c.144-.426.55-.5.96-.532" transform="translate(-93 -40) translate(17 40) translate(76) translate(.075 .182)"/>
                        <path fill="#1488C9" d="M15.838.587c8.245.096 14.86 6.84 14.795 15.086-.064 8.245-6.783 14.886-15.028 14.854C7.36 30.495.692 23.802.692 15.557.76 7.249 7.528.557 15.836.587m0 8.531c3.545.042 6.39 2.942 6.363 6.487-.027 3.546-2.916 6.402-6.462 6.388-3.545-.013-6.412-2.89-6.413-6.436.026-3.574 2.938-6.453 6.512-6.439m.385-6.384c-1.814.904-7.814 5.025-8.336 12.478-1.498-2.126-2.294-4.668-2.276-7.269l.063-.275c.791-1.679 5.57-5.385 10.548-4.935M3.043 15.083c.898 1.817 5.012 7.833 12.44 8.35-2.114 1.505-4.649 2.305-7.245 2.286l-.279-.056c-1.675-.801-5.372-5.595-4.916-10.58m12.41 13.302c1.814-.913 7.816-5.03 8.338-12.48 1.49 2.13 2.285 4.668 2.277 7.267l-.065.273c-.8 1.684-5.573 5.385-10.55 4.94m13.177-12.36c-.902-1.813-5.015-7.827-12.448-8.353 2.12-1.499 4.655-2.296 7.25-2.28l.278.066c1.67.793 5.365 5.585 4.923 10.567" transform="translate(-93 -40) translate(17 40) translate(76) translate(.075 .182)"/>
                    </g>
                </g>
            </g>
        </g>
    </g>
</svg>
