<svg xmlns="http://www.w3.org/2000/svg" width="21" height="15" viewBox="0 0 21 15">
    <g fill="none" fill-rule="evenodd">
        <g fill-rule="nonzero">
            <g>
                <g>
                    <g>
                        <path fill="#FAB446" d="M20 5H0V.395C0 .177.154 0 .345 0h19.31c.19 0 .345.177.345.395V5z" transform="translate(-1344 -66) translate(.5) translate(1344.014 63) translate(0 3)"/>
                        <path fill="#73AF00" d="M19.655 15H.345C.155 15 0 14.823 0 14.605V10h20v4.605c0 .218-.154.395-.345.395z" transform="translate(-1344 -66) translate(.5) translate(1344.014 63) translate(0 3)"/>
                        <path fill="#F5F5F5" d="M0 5H20V10H0z" transform="translate(-1344 -66) translate(.5) translate(1344.014 63) translate(0 3)"/>
                        <g fill="#41479B" transform="translate(-1344 -66) translate(.5) translate(1344.014 63) translate(0 3) translate(8.125 5.677)">
                            <path d="M1.875 3.728c-1.022 0-1.853-.83-1.853-1.853C.022.853.853.022 1.875.022s1.853.831 1.853 1.853-.831 1.853-1.853 1.853zm0-3.362c-.832 0-1.509.677-1.509 1.509 0 .832.677 1.509 1.509 1.509.832 0 1.509-.677 1.509-1.509 0-.832-.677-1.509-1.509-1.509z"/>
                            <circle cx="1.875" cy="1.875" r="1"/>
                            <path d="M1.875 1.927L1.341 1.99.194 1.927.194 1.853 1.341 1.79 1.875 1.853zM1.875 1.927L2.409 1.99 3.556 1.927 3.556 1.853 2.409 1.79 1.875 1.853z"/>
                            <path d="M1.853 1.875L1.79 1.341 1.853.194 1.926.194 1.99 1.341 1.926 1.875zM1.853 1.875L1.79 2.409 1.853 3.556 1.926 3.556 1.99 2.409 1.926 1.875z"/>
                            <path d="M1.853 1.897L1.437 1.558 0.664 0.709 0.709 0.664 1.558 1.437 1.897 1.853z"/>
                            <path d="M1.853 1.897L2.192 2.313 3.041 3.086 3.086 3.041 2.313 2.192 1.897 1.853z"/>
                            <path d="M1.853 1.853L2.192 1.437 3.041 0.664 3.086 0.709 2.313 1.558 1.897 1.897z"/>
                            <path d="M1.853 1.853L1.437 2.192 0.664 3.041 0.709 3.086 1.558 2.313 1.897 1.897z"/>
                            <path d="M1.887 1.904L1.414 2.158 0.334 2.547 0.31 2.489 1.349 2 1.863 1.846z"/>
                            <path d="M1.887 1.904L2.401 1.75 3.44 1.261 3.416 1.203 2.336 1.592 1.863 1.846z"/>
                            <path d="M1.846 1.887L1.592 1.414 1.203 0.334 1.261 0.31 1.75 1.349 1.904 1.863z"/>
                            <path d="M1.846 1.887L2 2.401 2.489 3.44 2.547 3.416 2.158 2.336 1.904 1.863z"/>
                            <path d="M1.863 1.904L1.349 1.75 0.31 1.261 0.334 1.203 1.414 1.592 1.887 1.846z"/>
                            <path d="M1.863 1.904L2.336 2.158 3.416 2.547 3.44 2.489 2.401 2 1.887 1.846z"/>
                            <path d="M1.846 1.863L2 1.349 2.489 0.31 2.547 0.334 2.158 1.414 1.904 1.887z"/>
                            <path d="M1.846 1.863L1.592 2.336 1.203 3.416 1.261 3.44 1.75 2.401 1.904 1.887z"/>
                        </g>
                    </g>
                </g>
            </g>
        </g>
    </g>
</svg>
