<?xml version="1.0" encoding="UTF-8"?>
<svg width="70px" height="83px" viewBox="0 0 70 83" version="1.1" xmlns="http://www.w3.org/2000/svg" xmlns:xlink="http://www.w3.org/1999/xlink">
    <title>D81889F6-9A6C-46C4-90F4-DB4E6163CADF</title>
    <g id="Homepage" stroke="none" stroke-width="1" fill="none" fill-rule="evenodd">
        <g id="Homepage_Desktop_v1.2" transform="translate(-285.000000, -1494.000000)" fill-rule="nonzero">
            <g id="safety" transform="translate(140.000000, 1435.000000)">
                <g id="shield" transform="translate(145.000000, 59.000000)">
                    <g id="Group" transform="translate(1.000000, 1.820046)">
                        <path d="M34.0206407,78.9274108 C13.8131947,72.5942628 0.0817131171,54.0429159 0.0817131171,33.0756722 L0.0817131171,13.4043197 C0.0817131171,12.9228486 0.383619898,12.4916758 0.839358418,12.3224333 L33.6099963,0.152792732 C33.8748043,0.0544106623 34.166477,0.0544106623 34.4312851,0.152792732 L67.2019229,12.3224333 C67.6576614,12.4916758 67.9595682,12.9226905 67.9595682,13.4043197 L67.9595682,33.0758304 C67.9595682,54.0429159 54.2280866,72.5942628 34.0206407,78.9274108 Z" id="Path" fill="#1488C9"></path>
                        <path d="M11.4447935,27.7135331 L11.4447935,8.38398712 L0.839358418,12.3224333 C0.383619898,12.4916758 0.0817131171,12.9226905 0.0817131171,13.4043197 L0.0817131171,33.0758304 C0.0817131171,54.043074 13.8131947,72.594421 34.0206407,78.927569 C36.071464,78.284764 38.0594434,77.5144735 39.9692277,76.6303002 C22.7658181,68.0081083 11.4447935,48.9729177 11.4447935,27.7135331 Z" id="Path" fill="#2E73A9"></path>
                        <path d="M34.553295,72.8879855 C34.2106117,73.0157873 33.8306697,73.0157873 33.4879863,72.8879855 C25.6673534,69.9727445 18.961281,64.9361203 13.9890938,58.2189342 C8.55221317,50.873653 5.67834205,42.1791771 5.67834205,33.0756722 L5.67834205,17.9434976 C5.67834205,17.0381295 6.24585644,16.2276637 7.10280477,15.9095828 L33.1499402,6.23682217 C33.7112182,6.02835341 34.3297433,6.02835341 34.8910213,6.23682217 L60.9381567,15.9095828 C61.7951051,16.2278219 62.3626194,17.0382877 62.3626194,17.9434976 L62.3626194,33.0756722 C62.3626194,42.1791771 59.4887483,50.873653 54.0518677,58.2189342 C49.0800003,64.9361203 42.373928,69.9727445 34.553295,72.8879855 Z" id="Path" fill="#1488C9"></path>
                        <polygon id="Path" fill="#E8E8E8" points="30.3750912 49 19 37.6467334 22.417242 34.2360479 30.3750912 42.1786289 45.582758 27 49 30.4106855"></polygon>
                        <path d="M11.4447935,27.7135331 L11.4447935,14.2971924 L7.10296467,15.9095828 C6.24617626,16.2278219 5.67850196,17.0382877 5.67850196,17.9434976 L5.67850196,33.0756722 C5.67850196,42.1791771 8.55237308,50.873653 13.9892537,58.2189342 C18.961281,64.9361203 25.6675133,69.9727445 33.4881462,72.8878273 C33.6147935,72.9351203 33.7467178,72.96454 33.8797615,72.9768773 C20.1444421,63.2754879 11.4447935,46.3493431 11.4447935,27.7135331 Z" id="Path" fill="#054F89"></path>
                    </g>
                    <g id="Group" transform="translate(0.000000, 0.820046)" fill="#08385E">
                        <path d="M68.3467194,12.4372836 L35.7645801,0.150585587 C35.2310201,-0.0503016541 34.6437225,-0.0501419663 34.1101624,0.150745275 L1.52834107,12.4371239 C0.615279303,12.7814108 0.001589869,13.6708718 0.001589869,14.6505564 L0.001589869,34.5107672 C0.001589869,45.974115 3.98691449,57.1736585 11.2235212,66.0463913 C11.4591398,66.3354262 11.8015976,66.4850536 12.1465992,66.4850536 C12.4124253,66.4850536 12.6798412,66.3962672 12.9016279,66.2139037 C13.411022,65.7947233 13.4857458,65.0401985 13.0684052,64.5283991 C6.18013878,56.0825119 2.38639337,45.4220743 2.38639337,34.5106076 L2.38639337,14.6721142 L34.9373713,2.39723312 L67.4883492,14.6721142 L67.4883492,34.5107672 C67.4883492,42.796807 65.3124545,50.9693088 61.1962836,58.1450394 C60.8674987,58.7181588 61.0635296,59.450487 61.6341335,59.7807214 C62.2044196,60.1106364 62.9338515,59.913901 63.2624774,59.3409412 C67.587239,51.8022403 69.8731527,43.2159875 69.8731527,34.5109269 L69.8731527,14.6505564 C69.8731527,13.6708718 69.2597812,12.7814108 68.3467194,12.4372836 Z" id="Path"></path>
                        <path d="M60.1655715,62.0569112 C59.6326475,61.6685505 58.8868399,61.7873582 58.5001838,62.322951 C52.6073343,70.4807615 44.4654562,76.4294511 34.9376892,79.5443212 C28.0064964,77.2757964 21.6141101,73.3701524 16.4312961,68.2334752 C15.9627617,67.7689435 15.2078919,67.7737341 14.7450811,68.2446534 C14.2825882,68.7155727 14.2876757,69.4737703 14.7563691,69.9383021 C20.2959497,75.4286877 27.1498749,79.5800912 34.5774249,81.9439496 C34.6945983,81.9811568 34.8160643,81.9998403 34.9376892,81.9998403 C35.0591552,81.9998403 35.1806212,81.9811568 35.2979536,81.9439496 C45.4708893,78.7064393 54.1615903,72.4080335 60.4306027,63.7294811 C60.8170999,63.1942076 60.6984956,62.4452719 60.1655715,62.0569112 L60.1655715,62.0569112 Z" id="Path"></path>
                        <path d="M49.8371466,11.4272583 L35.3566197,5.96673431 C35.086501,5.8648535 34.7887185,5.8648535 34.5185998,5.96673431 L6.33976162,16.5926793 C5.87456595,16.7681762 5.56644934,17.2148229 5.56644934,17.7138473 L5.56644934,34.5106076 C5.56644934,43.9575776 8.50341435,52.9800974 14.0595295,60.6026345 C19.2374149,67.7058668 26.3166246,73.0395987 34.5317957,76.0273572 C34.6629599,76.0751039 34.8003246,76.0988974 34.9378482,76.0988974 C35.0753719,76.0988974 35.2127366,76.0751039 35.3439008,76.0273572 C43.5590719,73.0395987 50.6381226,67.7058668 55.8161669,60.6026345 C61.3722821,52.9800974 64.3092471,43.9575776 64.3092471,34.5106076 L64.3092471,17.7141666 C64.3092471,17.2151423 64.0011305,16.7683359 63.5359348,16.5929987 L54.5945116,13.2213506 C53.9781194,12.9890049 53.29066,13.302472 53.0591751,13.9215816 C52.8276902,14.5408509 53.1399404,15.2313409 53.7564916,15.4638463 L61.9241256,18.5437447 L61.9241256,34.5107672 C61.9241256,43.4454588 59.1464655,51.9786953 53.8916305,59.1878006 C49.080051,65.7884955 42.5334474,70.7734692 34.9376892,73.6254932 C27.3420901,70.7736289 20.7953275,65.7886552 15.983748,59.1878006 C10.728754,51.9786953 7.95125284,43.4454588 7.95125284,34.5107672 L7.95125284,18.5437447 L34.9376892,8.36732087 L48.9991266,13.669754 C49.6155188,13.9024191 50.3029782,13.5887923 50.5344631,12.969523 C50.765948,12.3502537 50.4536978,11.6597637 49.8371466,11.4272583 Z" id="Path"></path>
                    </g>
                </g>
            </g>
        </g>
    </g>
</svg>